<svg xmlns="http://www.w3.org/2000/svg" xmlns:xlink="http://www.w3.org/1999/xlink" width="500" zoomAndPan="magnify" viewBox="0 0 375 374.999991" height="500" preserveAspectRatio="xMidYMid meet" version="1.0"><defs><g/><clipPath id="eff1bb0c24"><path d="M 82.027344 207 L 289 207 L 289 288 L 82.027344 288 Z M 82.027344 207 " clip-rule="nonzero"/></clipPath><clipPath id="e04f24c9a1"><path d="M 82.027344 83 L 289 83 L 289 164 L 82.027344 164 Z M 82.027344 83 " clip-rule="nonzero"/></clipPath><clipPath id="a7eabadbae"><path d="M 169.375 102.886719 L 205.375 102.886719 L 205.375 142.636719 L 169.375 142.636719 Z M 169.375 102.886719 " clip-rule="nonzero"/></clipPath></defs><g clip-path="url(#eff1bb0c24)"><path fill="#2c6b74" d="M 120.25 216.464844 C 123.253906 215.789062 126.90625 214.605469 130.527344 212.554688 L 138.757812 212.554688 C 132.636719 217.925781 125.53125 220.289062 120.417969 221.332031 C 112.695312 220.121094 105.195312 223.128906 98.0625 230.246094 C 87.644531 240.683594 87.53125 247.546875 87.53125 247.828125 L 87.53125 248.871094 L 110.730469 237.730469 C 112.078125 238.207031 118.507812 240.742188 122.410156 247.6875 C 124.882812 252.078125 125.25 257.394531 123.480469 262.316406 C 117.835938 265.410156 100.421875 273.597656 99.664062 273.933594 L 99.746094 274.132812 L 99.664062 273.933594 L 98.511719 274.46875 L 99.605469 275.085938 C 99.664062 275.117188 105.082031 278.125 112.1875 279.277344 C 113.847656 279.53125 115.671875 279.730469 117.609375 279.730469 C 123.453125 279.730469 130.246094 278.097656 136.035156 272.300781 C 143.980469 264.34375 145.636719 255.988281 145.609375 250.359375 C 146.453125 243.835938 149.035156 234.523438 156.507812 227.070312 L 171.027344 212.527344 L 192.511719 212.527344 C 192.570312 213.707031 192.34375 214.945312 191.585938 216.042969 C 189.226562 219.558594 186.699219 220.683594 189.675781 224.425781 C 192.457031 227.914062 198.691406 222.597656 203.210938 226.140625 C 203.464844 226.367188 203.746094 226.617188 204 226.871094 C 204.054688 226.929688 204.082031 226.957031 204.140625 227.011719 L 204.140625 226.984375 C 204.167969 227.011719 204.167969 227.011719 204.195312 227.039062 C 215.792969 238.660156 224.21875 260.542969 237.617188 273.960938 C 251.011719 287.378906 270.925781 292.078125 281.035156 281.953125 C 291.148438 271.824219 284.742188 253.566406 271.347656 240.175781 C 260.28125 229.09375 243.429688 221.414062 231.382812 212.496094 L 239.808594 212.496094 C 242.671875 214.355469 245.707031 216.210938 248.824219 218.09375 C 251.574219 219.78125 254.382812 221.472656 257.109375 223.242188 C 257.359375 222.738281 257.640625 222.230469 257.894531 221.722656 L 258.289062 220.910156 L 265.703125 223.300781 C 266.796875 223.664062 268.003906 223.046875 268.34375 221.949219 L 271.347656 212.527344 L 288.507812 212.527344 L 288.507812 207.207031 L 82.027344 207.207031 L 82.027344 212.527344 L 99.15625 212.527344 L 101.9375 220.9375 C 106.824219 217.8125 111.910156 216.238281 117.105469 216.238281 C 118.171875 216.265625 119.210938 216.324219 120.25 216.464844 Z M 228.039062 212.527344 C 233.066406 216.492188 239.050781 220.148438 245.3125 223.972656 C 254.101562 229.320312 263.175781 234.859375 269.941406 241.640625 C 276.515625 248.222656 281.175781 255.734375 283.058594 262.851562 C 284.433594 267.96875 284.941406 275.199219 279.632812 280.546875 C 277.273438 282.878906 274.210938 284.425781 270.644531 285.046875 C 292.777344 272.21875 269.351562 244.171875 250.871094 232.273438 C 238.738281 224.453125 231.269531 218.179688 226.242188 212.527344 Z M 116.542969 237.113281 C 116.542969 237.113281 132.242188 239.785156 127.046875 259.617188 C 127.046875 259.617188 128.789062 243.664062 116.542969 237.113281 Z M 104.242188 274.214844 L 124.96875 264.230469 C 124.96875 264.230469 118.3125 271.066406 104.242188 274.214844 Z M 143.757812 252.1875 C 143.335938 259.109375 140.21875 265.636719 134.769531 271.09375 C 129.769531 276.101562 123.984375 277.789062 118.816406 278.042969 C 123.367188 277.394531 128.308594 275.480469 132.691406 271.09375 C 138.140625 265.636719 141.339844 259.164062 141.902344 252.414062 C 141.960938 251.65625 142.015625 250.867188 141.988281 250.136719 C 141.988281 242.597656 138.785156 236.691406 135.808594 233.707031 C 129.601562 227.492188 123.253906 224.339844 116.933594 224.3125 C 116.066406 224.3125 115.222656 224.367188 114.351562 224.480469 C 109.042969 225.15625 103.761719 228.109375 98.679688 233.203125 C 92.726562 239.164062 90.28125 243.804688 89.273438 246.621094 C 89.777344 244.226562 91.714844 238.800781 99.015625 231.457031 C 104.101562 226.367188 109.4375 223.46875 114.855469 222.90625 C 115.726562 222.820312 116.597656 222.765625 117.496094 222.792969 C 123.984375 222.988281 130.558594 226.367188 137.042969 232.890625 C 140.160156 236.015625 143.589844 242.117188 143.785156 249.855469 C 143.8125 250.613281 143.8125 251.402344 143.757812 252.1875 Z M 153.472656 220.628906 C 151.84375 222.257812 149.035156 222.117188 147.210938 220.289062 C 145.386719 218.460938 145.246094 215.648438 146.875 214.015625 L 148.363281 212.527344 L 161.535156 212.527344 Z M 153.472656 220.628906 " fill-opacity="1" fill-rule="nonzero"/></g><path fill="#2c6b74" d="M 200.910156 230.5 C 200.882812 230.472656 200.855469 230.445312 200.824219 230.417969 L 201.808594 229.402344 L 201.21875 229.769531 L 200.714844 230.277344 C 200.714844 230.277344 200.683594 230.246094 200.683594 230.246094 C 200.683594 230.246094 200.714844 230.277344 200.714844 230.277344 C 200.683594 230.246094 200.683594 230.246094 200.65625 230.21875 C 200.515625 230.078125 200.375 229.9375 200.234375 229.824219 C 200.09375 229.742188 199.84375 229.628906 199.253906 229.628906 C 198.496094 229.628906 197.539062 229.796875 196.554688 229.996094 C 195.320312 230.21875 194.058594 230.445312 192.679688 230.445312 C 189.171875 230.445312 187.121094 228.785156 185.996094 227.378906 C 185.773438 227.125 185.601562 226.84375 185.40625 226.589844 C 185.378906 226.589844 185.324219 226.589844 185.292969 226.589844 C 179.003906 226.589844 173.050781 225.15625 167.714844 222.625 L 159.933594 230.417969 C 153.53125 236.832031 151.253906 244.902344 150.441406 250.671875 C 150.441406 252.949219 150.1875 255.59375 149.457031 258.460938 C 157.011719 262.203125 165.074219 264.707031 173.386719 265.945312 L 174.285156 266.085938 L 174.3125 273.878906 C 174.3125 274.441406 174.539062 274.976562 174.929688 275.367188 C 175.324219 275.761719 175.859375 275.988281 176.417969 275.988281 L 194.871094 275.902344 C 195.433594 275.902344 195.964844 275.679688 196.359375 275.285156 C 196.753906 274.890625 196.976562 274.355469 196.976562 273.792969 L 196.949219 266 L 197.847656 265.859375 C 205.628906 264.652344 213.15625 262.316406 220.230469 258.914062 C 218.660156 256.410156 217.144531 253.90625 215.625 251.402344 C 210.710938 243.328125 206.078125 235.703125 200.910156 230.5 Z M 200.910156 230.5 " fill-opacity="1" fill-rule="nonzero"/><path fill="#2c6b74" d="M 148.726562 137.980469 C 148.699219 138.007812 148.671875 138.035156 148.671875 138.035156 L 162.265625 151.652344 C 168.835938 147.179688 176.757812 144.5625 185.265625 144.5625 C 189.675781 144.5625 193.945312 145.265625 197.933594 146.558594 L 204.953125 139.527344 C 212.929688 131.539062 214.445312 120.792969 214.726562 116.347656 C 214.699219 115.476562 214.726562 114.574219 214.785156 113.648438 L 214.785156 109.90625 C 209.109375 107.683594 203.183594 106.109375 197.117188 105.207031 L 196.21875 105.066406 L 196.191406 97.273438 C 196.191406 96.710938 195.964844 96.179688 195.574219 95.785156 C 195.179688 95.390625 194.648438 95.164062 194.085938 95.164062 L 175.632812 95.25 C 174.480469 95.25 173.527344 96.207031 173.527344 97.359375 L 173.554688 105.152344 L 172.65625 105.292969 C 163.921875 106.640625 155.523438 109.425781 147.6875 113.535156 L 146.875 113.957031 L 142.269531 107.65625 C 141.59375 106.726562 140.273438 106.5 139.320312 107.203125 L 126.933594 116.292969 L 148.585938 137.980469 C 148.699219 138.035156 148.726562 138.007812 148.726562 137.980469 Z M 148.726562 137.980469 " fill-opacity="1" fill-rule="nonzero"/><g clip-path="url(#e04f24c9a1)"><path fill="#2c6b74" d="M 288.5625 164 L 288.5625 158.683594 L 271.429688 158.683594 L 268.089844 148.558594 C 267.949219 148.105469 267.667969 147.769531 267.300781 147.515625 C 264.4375 149.371094 261.515625 150.722656 258.539062 151.59375 L 258.484375 152.832031 C 258.484375 152.832031 253.289062 152.609375 253.289062 152.609375 C 252.445312 152.691406 251.601562 152.71875 250.761719 152.71875 C 250.59375 152.71875 250.421875 152.71875 250.253906 152.71875 C 247.109375 152.972656 242.363281 153.761719 237.476562 155.925781 C 237.980469 156.828125 238.488281 157.753906 238.964844 158.683594 L 235.59375 158.683594 C 235.398438 158.175781 235.171875 157.671875 234.949219 157.164062 C 234.105469 157.613281 233.292969 158.121094 232.449219 158.683594 L 224.867188 158.683594 C 233.433594 150.386719 244.300781 148.359375 250.113281 147.910156 C 250.339844 147.910156 250.535156 147.910156 250.761719 147.910156 C 251.546875 147.910156 252.332031 147.851562 253.089844 147.796875 C 253.316406 147.796875 253.457031 147.796875 253.484375 147.796875 L 253.960938 147.824219 L 253.960938 147.683594 C 260 146.8125 265.898438 143.519531 271.542969 137.867188 C 282.917969 126.472656 283.03125 118.964844 283.03125 118.652344 L 283.03125 117.613281 L 257.699219 129.765625 C 256.265625 129.257812 249.160156 126.503906 244.835938 118.824219 C 242.109375 114.011719 241.71875 108.160156 243.683594 102.730469 C 249.832031 99.355469 268.929688 90.382812 269.773438 89.988281 L 270.953125 89.453125 L 269.859375 88.835938 C 269.605469 88.695312 263.792969 85.488281 256.097656 84.25 C 248.851562 83.070312 238.460938 83.460938 230.035156 91.875 C 223.828125 98.089844 220.230469 105.515625 219.640625 113.394531 L 219.613281 113.394531 L 219.613281 113.816406 C 219.558594 114.714844 219.53125 115.617188 219.558594 116.460938 C 219.277344 121.355469 217.621094 133.675781 208.378906 142.929688 L 192.679688 158.65625 L 162.515625 158.65625 L 108.820312 104.898438 C 108.789062 104.871094 106.207031 102.589844 105.785156 100.398438 C 105.589844 99.382812 105.167969 98.597656 104.523438 98.0625 C 102.695312 96.542969 99.15625 93.757812 96.039062 91.28125 C 93.710938 89.425781 91.714844 87.851562 90.902344 87.175781 C 90.5625 86.894531 90.058594 86.894531 89.722656 87.203125 L 89.691406 87.230469 L 88.511719 88.414062 L 87.867188 89.0625 L 87.277344 89.652344 L 84.917969 92.015625 L 84.890625 92.042969 C 84.890625 92.042969 84.863281 92.070312 84.863281 92.070312 C 84.496094 92.519531 84.46875 93.140625 84.835938 93.589844 C 85.339844 94.207031 86.378906 95.558594 87.558594 97.078125 C 90.058594 100.339844 93.457031 104.8125 95.535156 107.0625 C 96.179688 107.765625 97.023438 108.21875 98.035156 108.414062 C 98.566406 108.527344 99.101562 108.753906 99.605469 109.035156 C 99.605469 109.035156 99.636719 109.035156 99.636719 109.035156 C 101.125 109.90625 102.359375 111.3125 102.386719 111.339844 L 102.414062 111.367188 L 149.65625 158.683594 L 142.859375 158.683594 L 137.523438 153.339844 C 136.625 155.054688 135.78125 156.855469 135.023438 158.683594 L 131.652344 158.683594 C 132.886719 156.238281 134.265625 153.875 135.808594 151.652344 L 120.699219 136.515625 C 117.609375 140.566406 114.914062 144.898438 112.636719 149.484375 L 112.246094 150.300781 L 104.832031 147.910156 C 103.734375 147.542969 102.527344 148.164062 102.191406 149.261719 L 99.1875 158.683594 L 82.027344 158.683594 L 82.027344 164 Z M 251.152344 129.992188 C 251.152344 129.992188 234.386719 127.121094 239.949219 105.996094 C 239.949219 105.996094 238.09375 122.984375 251.152344 129.992188 Z M 264.296875 90.410156 L 242.195312 101.042969 C 242.167969 101.074219 249.273438 93.757812 264.296875 90.410156 Z M 231.71875 93.730469 C 237.027344 88.414062 243.234375 86.585938 248.738281 86.332031 C 243.878906 87.035156 238.628906 89.0625 233.964844 93.730469 C 228.152344 99.554688 224.753906 106.445312 224.136719 113.648438 C 224.078125 114.460938 224.023438 115.277344 224.023438 116.066406 C 224.023438 124.109375 227.421875 130.382812 230.625 133.589844 C 237.222656 140.203125 243.992188 143.578125 250.734375 143.605469 C 251.660156 143.605469 252.585938 143.550781 253.484375 143.4375 C 259.15625 142.707031 264.773438 139.582031 270.195312 134.125 C 276.542969 127.769531 279.15625 122.816406 280.222656 119.835938 C 279.6875 122.394531 277.636719 128.191406 269.832031 136.011719 C 264.410156 141.441406 258.707031 144.507812 252.921875 145.125 C 251.996094 145.238281 251.042969 145.265625 250.113281 145.238281 C 243.207031 145.039062 236.183594 141.410156 229.277344 134.492188 C 225.933594 131.144531 222.308594 124.644531 222.113281 116.402344 C 222.085938 115.585938 222.113281 114.773438 222.171875 113.929688 C 222.589844 106.53125 225.90625 99.582031 231.71875 93.730469 Z M 214.558594 146.277344 C 216.1875 144.648438 218.996094 144.789062 220.820312 146.617188 C 222.648438 148.445312 222.789062 151.257812 221.160156 152.890625 L 215.34375 158.710938 L 202.171875 158.710938 Z M 90.453125 87.511719 L 90.421875 87.542969 C 90.394531 87.511719 90.367188 87.511719 90.367188 87.484375 C 90.394531 87.484375 90.421875 87.511719 90.453125 87.511719 Z M 103.902344 105.039062 C 103.902344 105.039062 103.144531 100.820312 100.335938 98.792969 C 97.640625 96.824219 90.453125 90.214844 90.003906 89.820312 L 90.589844 90.269531 L 90.984375 89.875 C 91.910156 90.609375 93.121094 91.5625 94.4375 92.605469 L 94.945312 93.027344 C 98.007812 95.445312 101.460938 98.175781 103.230469 99.664062 C 103.484375 99.890625 103.679688 100.285156 103.792969 100.820312 C 104.296875 103.492188 106.796875 105.882812 107.441406 106.445312 L 159.625 158.738281 L 157.011719 158.738281 Z M 103.902344 105.039062 " fill-opacity="1" fill-rule="nonzero"/></g><g clip-path="url(#a7eabadbae)"><path fill="#ffffff" d="M 205.339844 125.011719 C 205.332031 125.121094 205.332031 125.230469 205.320312 125.339844 L 205.292969 125.667969 L 205.261719 125.992188 L 205.246094 126.15625 C 205.242188 126.210938 205.234375 126.265625 205.226562 126.320312 L 205.132812 126.964844 C 205.121094 127.074219 205.097656 127.179688 205.078125 127.289062 L 204.953125 127.929688 L 204.878906 128.246094 L 204.800781 128.566406 C 204.773438 128.671875 204.75 128.777344 204.71875 128.882812 L 204.53125 129.507812 C 204.503906 129.609375 204.464844 129.714844 204.429688 129.816406 L 204.324219 130.125 L 204.214844 130.429688 C 204.175781 130.53125 204.132812 130.632812 204.09375 130.730469 L 203.96875 131.035156 C 203.929688 131.132812 203.890625 131.234375 203.84375 131.332031 L 203.570312 131.921875 C 203.1875 132.699219 202.757812 133.449219 202.269531 134.164062 C 201.78125 134.871094 201.246094 135.546875 200.667969 136.179688 C 200.082031 136.808594 199.453125 137.394531 198.792969 137.933594 C 198.125 138.46875 197.421875 138.953125 196.691406 139.386719 L 196.136719 139.699219 C 196.046875 139.753906 195.949219 139.800781 195.855469 139.847656 L 195.285156 140.128906 L 194.996094 140.257812 L 194.703125 140.386719 C 194.605469 140.429688 194.511719 140.472656 194.410156 140.507812 L 193.816406 140.734375 C 193.71875 140.773438 193.617188 140.800781 193.519531 140.835938 L 193.214844 140.933594 C 193.117188 140.96875 193.015625 141 192.914062 141.03125 L 192.304688 141.195312 C 192.203125 141.222656 192.101562 141.253906 191.996094 141.273438 L 191.378906 141.40625 C 191.277344 141.433594 191.171875 141.445312 191.070312 141.464844 L 190.445312 141.566406 L 190.132812 141.601562 C 189.921875 141.625 189.714844 141.652344 189.503906 141.667969 L 188.875 141.707031 L 188.71875 141.714844 C 188.664062 141.71875 188.613281 141.71875 188.5625 141.71875 L 188.246094 141.71875 C 187.824219 141.734375 187.40625 141.703125 186.988281 141.6875 C 186.777344 141.671875 186.570312 141.648438 186.359375 141.632812 C 186.257812 141.621094 186.152344 141.613281 186.046875 141.601562 L 185.738281 141.554688 L 185.425781 141.507812 C 185.324219 141.496094 185.21875 141.480469 185.117188 141.457031 L 184.5 141.335938 C 184.398438 141.316406 184.296875 141.289062 184.195312 141.265625 L 183.890625 141.1875 L 183.585938 141.113281 L 183.285156 141.019531 L 182.988281 140.929688 C 182.886719 140.894531 182.785156 140.871094 182.6875 140.832031 L 182.097656 140.617188 C 182 140.585938 181.902344 140.542969 181.808594 140.503906 L 181.230469 140.261719 L 180.945312 140.125 L 180.664062 139.988281 C 180.570312 139.941406 180.472656 139.902344 180.382812 139.847656 L 179.832031 139.550781 C 179.109375 139.132812 178.410156 138.671875 177.75 138.160156 C 177.09375 137.640625 176.476562 137.078125 175.894531 136.480469 C 175.324219 135.867188 174.792969 135.222656 174.304688 134.542969 C 173.824219 133.859375 173.398438 133.140625 173.015625 132.398438 L 172.742188 131.835938 C 172.695312 131.742188 172.660156 131.644531 172.617188 131.546875 L 172.496094 131.261719 L 172.371094 130.972656 L 172.265625 130.679688 L 172.15625 130.386719 C 172.121094 130.289062 172.082031 130.191406 172.054688 130.089844 L 171.867188 129.496094 C 171.832031 129.394531 171.8125 129.292969 171.78125 129.191406 L 171.625 128.589844 L 171.5625 128.28125 L 171.496094 127.976562 C 171.476562 127.875 171.453125 127.773438 171.4375 127.671875 L 171.339844 127.054688 C 171.324219 126.953125 171.3125 126.847656 171.300781 126.746094 L 171.269531 126.433594 L 171.234375 126.125 C 171.226562 126.019531 171.222656 125.917969 171.214844 125.8125 C 171.203125 125.605469 171.1875 125.398438 171.179688 125.191406 C 171.179688 124.773438 171.164062 124.359375 171.191406 123.941406 L 171.203125 123.632812 C 171.207031 123.578125 171.207031 123.527344 171.210938 123.476562 L 171.226562 123.320312 L 171.28125 122.703125 C 171.304688 122.496094 171.339844 122.292969 171.367188 122.085938 L 171.410156 121.777344 L 171.527344 121.167969 C 171.546875 121.066406 171.5625 120.964844 171.589844 120.867188 L 171.738281 120.265625 C 171.761719 120.164062 171.792969 120.066406 171.820312 119.964844 L 171.910156 119.667969 L 171.996094 119.371094 C 172.03125 119.273438 172.066406 119.179688 172.101562 119.082031 L 172.203125 118.789062 C 172.238281 118.691406 172.265625 118.59375 172.308594 118.5 L 172.542969 117.925781 C 172.578125 117.832031 172.625 117.738281 172.667969 117.644531 L 172.796875 117.367188 L 172.925781 117.085938 L 173.070312 116.8125 L 173.214844 116.542969 C 173.261719 116.453125 173.304688 116.359375 173.359375 116.273438 L 173.671875 115.742188 C 174.105469 115.046875 174.582031 114.378906 175.101562 113.753906 C 175.632812 113.132812 176.199219 112.546875 176.800781 112.003906 C 177.410156 111.464844 178.058594 110.972656 178.730469 110.527344 C 179.40625 110.085938 180.117188 109.699219 180.84375 109.359375 L 181.394531 109.117188 C 181.484375 109.074219 181.582031 109.042969 181.675781 109.003906 L 181.957031 108.898438 C 182.050781 108.863281 182.140625 108.824219 182.238281 108.792969 L 182.808594 108.605469 C 182.902344 108.574219 183 108.542969 183.09375 108.519531 L 183.675781 108.363281 C 183.769531 108.335938 183.871094 108.320312 183.96875 108.296875 L 184.261719 108.234375 L 184.550781 108.171875 L 184.847656 108.121094 L 185.144531 108.074219 C 185.242188 108.058594 185.339844 108.039062 185.441406 108.03125 L 186.035156 107.964844 C 186.082031 107.957031 186.132812 107.953125 186.183594 107.949219 L 186.332031 107.941406 L 186.628906 107.921875 L 186.929688 107.902344 C 187.027344 107.898438 187.128906 107.902344 187.226562 107.898438 L 187.824219 107.894531 L 187.894531 107.894531 C 187.902344 107.894531 187.910156 107.890625 187.917969 107.890625 L 187.058594 110.265625 L 192.519531 106.574219 L 187.058594 102.886719 L 187.890625 105.191406 C 187.871094 105.1875 187.847656 105.1875 187.824219 105.1875 L 187.132812 105.21875 C 187.015625 105.222656 186.902344 105.222656 186.785156 105.234375 L 186.441406 105.265625 L 186.09375 105.296875 L 185.921875 105.316406 C 185.863281 105.320312 185.808594 105.332031 185.75 105.339844 L 185.0625 105.4375 C 184.949219 105.453125 184.835938 105.476562 184.722656 105.5 L 184.042969 105.632812 L 183.707031 105.71875 L 183.371094 105.800781 C 183.257812 105.832031 183.144531 105.855469 183.035156 105.890625 L 182.371094 106.09375 C 182.261719 106.125 182.152344 106.164062 182.042969 106.203125 L 181.71875 106.320312 L 181.390625 106.441406 C 181.285156 106.480469 181.179688 106.527344 181.070312 106.570312 L 180.753906 106.707031 C 180.644531 106.75 180.539062 106.792969 180.433594 106.84375 L 179.808594 107.144531 C 178.988281 107.5625 178.1875 108.03125 177.433594 108.558594 C 176.679688 109.09375 175.964844 109.679688 175.292969 110.3125 C 174.628906 110.953125 174.003906 111.636719 173.433594 112.359375 C 172.863281 113.085938 172.351562 113.855469 171.890625 114.652344 L 171.558594 115.261719 C 171.5 115.363281 171.453125 115.46875 171.402344 115.570312 L 171.097656 116.195312 L 170.964844 116.511719 L 170.828125 116.828125 C 170.78125 116.9375 170.734375 117.042969 170.695312 117.152344 L 170.457031 117.800781 C 170.414062 117.90625 170.382812 118.019531 170.347656 118.128906 L 170.242188 118.457031 C 170.207031 118.566406 170.171875 118.675781 170.140625 118.789062 L 170.050781 119.121094 L 169.964844 119.457031 C 169.933594 119.570312 169.902344 119.679688 169.882812 119.792969 L 169.738281 120.46875 C 169.714844 120.582031 169.699219 120.695312 169.679688 120.808594 L 169.625 121.152344 L 169.570312 121.492188 L 169.53125 121.835938 C 169.507812 122.0625 169.476562 122.292969 169.460938 122.523438 L 169.417969 123.210938 L 169.410156 123.382812 C 169.40625 123.441406 169.40625 123.496094 169.40625 123.554688 L 169.402344 123.898438 C 169.390625 124.359375 169.417969 124.816406 169.433594 125.273438 C 169.453125 125.503906 169.476562 125.734375 169.496094 125.960938 C 169.507812 126.074219 169.515625 126.191406 169.527344 126.304688 L 169.574219 126.644531 L 169.625 126.984375 C 169.640625 127.097656 169.652344 127.210938 169.675781 127.324219 L 169.804688 128 C 169.824219 128.109375 169.855469 128.222656 169.882812 128.332031 L 169.960938 128.667969 L 170.042969 129 L 170.238281 129.65625 C 170.269531 129.765625 170.300781 129.878906 170.339844 129.984375 L 170.566406 130.632812 C 170.601562 130.738281 170.644531 130.84375 170.6875 130.953125 L 170.945312 131.585938 L 171.089844 131.894531 L 171.230469 132.203125 C 171.28125 132.308594 171.324219 132.414062 171.378906 132.511719 L 171.695312 133.117188 C 172.136719 133.910156 172.625 134.675781 173.171875 135.398438 C 173.71875 136.117188 174.316406 136.796875 174.953125 137.433594 C 175.597656 138.0625 176.285156 138.644531 177.003906 139.179688 C 177.730469 139.707031 178.496094 140.175781 179.28125 140.59375 L 179.882812 140.894531 C 179.980469 140.945312 180.082031 140.988281 180.183594 141.03125 L 180.492188 141.167969 L 180.796875 141.300781 L 181.109375 141.421875 L 181.421875 141.539062 C 181.523438 141.578125 181.628906 141.621094 181.734375 141.652344 L 182.367188 141.859375 C 182.472656 141.894531 182.582031 141.921875 182.6875 141.953125 L 183.007812 142.039062 L 183.332031 142.125 L 183.980469 142.265625 C 184.089844 142.289062 184.195312 142.316406 184.308594 142.332031 L 184.960938 142.4375 C 185.070312 142.460938 185.179688 142.46875 185.292969 142.484375 L 185.621094 142.519531 L 185.949219 142.558594 C 186.0625 142.566406 186.171875 142.570312 186.28125 142.578125 C 186.503906 142.589844 186.722656 142.609375 186.941406 142.617188 C 187.382812 142.621094 187.824219 142.636719 188.265625 142.609375 L 188.597656 142.59375 C 188.652344 142.589844 188.707031 142.589844 188.761719 142.585938 L 188.925781 142.570312 L 189.585938 142.507812 C 189.804688 142.484375 190.023438 142.449219 190.242188 142.417969 L 190.566406 142.371094 L 190.890625 142.304688 L 191.214844 142.242188 C 191.324219 142.21875 191.433594 142.203125 191.539062 142.171875 L 192.179688 142.011719 C 192.285156 141.988281 192.390625 141.953125 192.496094 141.921875 L 193.128906 141.726562 C 193.230469 141.691406 193.335938 141.652344 193.4375 141.617188 L 193.75 141.503906 C 193.851562 141.464844 193.957031 141.433594 194.058594 141.386719 L 194.664062 141.132812 C 194.769531 141.09375 194.867188 141.042969 194.964844 140.996094 L 195.265625 140.855469 L 195.5625 140.710938 L 196.140625 140.398438 C 196.238281 140.34375 196.335938 140.296875 196.429688 140.234375 L 196.992188 139.894531 C 197.734375 139.417969 198.441406 138.898438 199.109375 138.328125 C 199.773438 137.75 200.394531 137.125 200.976562 136.464844 C 201.546875 135.796875 202.070312 135.089844 202.546875 134.351562 C 203.019531 133.609375 203.429688 132.828125 203.796875 132.03125 L 204.054688 131.425781 C 204.097656 131.324219 204.132812 131.21875 204.171875 131.117188 L 204.285156 130.808594 C 204.324219 130.707031 204.363281 130.601562 204.398438 130.5 L 204.5 130.183594 L 204.597656 129.871094 C 204.632812 129.765625 204.664062 129.660156 204.691406 129.554688 L 204.859375 128.917969 C 204.890625 128.8125 204.90625 128.703125 204.929688 128.597656 L 205 128.277344 L 205.066406 127.953125 L 205.167969 127.304688 C 205.1875 127.195312 205.207031 127.089844 205.214844 126.980469 L 205.289062 126.324219 C 205.292969 126.269531 205.300781 126.214844 205.304688 126.164062 L 205.3125 126 L 205.351562 125.34375 C 205.359375 125.234375 205.355469 125.125 205.359375 125.015625 L 205.363281 124.359375 L 205.339844 125.011719 " fill-opacity="1" fill-rule="nonzero"/></g><path fill="#ffffff" d="M 188.292969 113.101562 L 188.292969 111.273438 C 188.292969 110.996094 188.066406 110.765625 187.792969 110.765625 C 187.515625 110.765625 187.292969 110.996094 187.292969 111.273438 L 187.292969 113.101562 C 187.292969 113.378906 187.515625 113.605469 187.792969 113.605469 C 188.066406 113.605469 188.292969 113.378906 188.292969 113.101562 " fill-opacity="1" fill-rule="nonzero"/><path fill="#ffffff" d="M 182.253906 114.964844 C 182.3125 114.964844 182.371094 114.949219 182.421875 114.917969 C 182.582031 114.824219 182.636719 114.617188 182.542969 114.457031 L 181.644531 112.875 C 181.554688 112.714844 181.351562 112.65625 181.191406 112.75 C 181.03125 112.84375 180.976562 113.050781 181.070312 113.214844 L 181.96875 114.792969 C 182.027344 114.902344 182.140625 114.964844 182.253906 114.964844 " fill-opacity="1" fill-rule="nonzero"/><path fill="#ffffff" d="M 178.042969 119.050781 C 178.097656 119.082031 178.152344 119.097656 178.210938 119.097656 C 178.324219 119.097656 178.4375 119.035156 178.5 118.925781 C 178.589844 118.765625 178.535156 118.558594 178.378906 118.464844 L 176.820312 117.554688 C 176.660156 117.460938 176.457031 117.515625 176.367188 117.675781 C 176.273438 117.839844 176.328125 118.046875 176.488281 118.136719 L 178.042969 119.050781 " fill-opacity="1" fill-rule="nonzero"/><path fill="#ffffff" d="M 174.445312 124.390625 C 174.445312 124.671875 174.671875 124.898438 174.945312 124.898438 L 176.742188 124.898438 C 177.019531 124.898438 177.242188 124.671875 177.242188 124.390625 C 177.242188 124.113281 177.019531 123.886719 176.742188 123.886719 L 174.945312 123.886719 C 174.671875 123.886719 174.445312 124.113281 174.445312 124.390625 " fill-opacity="1" fill-rule="nonzero"/><path fill="#ffffff" d="M 176.6875 131.265625 C 176.746094 131.265625 176.800781 131.253906 176.855469 131.222656 L 178.410156 130.308594 C 178.570312 130.214844 178.625 130.007812 178.53125 129.847656 C 178.441406 129.6875 178.238281 129.628906 178.078125 129.722656 L 176.523438 130.636719 C 176.363281 130.730469 176.308594 130.9375 176.398438 131.097656 C 176.460938 131.207031 176.574219 131.265625 176.6875 131.265625 " fill-opacity="1" fill-rule="nonzero"/><path fill="#ffffff" d="M 182.023438 133.957031 L 181.125 135.535156 C 181.035156 135.699219 181.089844 135.90625 181.25 136 C 181.300781 136.03125 181.359375 136.042969 181.414062 136.042969 C 181.527344 136.042969 181.640625 135.984375 181.703125 135.875 L 182.601562 134.292969 C 182.691406 134.132812 182.640625 133.925781 182.480469 133.832031 C 182.320312 133.738281 182.117188 133.792969 182.023438 133.957031 " fill-opacity="1" fill-rule="nonzero"/><path fill="#ffffff" d="M 187.859375 137.949219 C 188.132812 137.949219 188.359375 137.722656 188.359375 137.441406 L 188.359375 135.617188 C 188.359375 135.335938 188.132812 135.109375 187.859375 135.109375 C 187.582031 135.109375 187.359375 135.335938 187.359375 135.617188 L 187.359375 137.441406 C 187.359375 137.722656 187.582031 137.949219 187.859375 137.949219 " fill-opacity="1" fill-rule="nonzero"/><path fill="#ffffff" d="M 193.230469 133.796875 C 193.070312 133.890625 193.015625 134.097656 193.109375 134.261719 L 194.007812 135.839844 C 194.066406 135.949219 194.179688 136.011719 194.292969 136.011719 C 194.351562 136.011719 194.410156 135.996094 194.460938 135.964844 C 194.621094 135.871094 194.675781 135.664062 194.582031 135.503906 L 193.683594 133.921875 C 193.59375 133.761719 193.386719 133.703125 193.230469 133.796875 " fill-opacity="1" fill-rule="nonzero"/><path fill="#ffffff" d="M 197.605469 129.664062 C 197.449219 129.570312 197.242188 129.628906 197.152344 129.789062 C 197.058594 129.949219 197.113281 130.15625 197.273438 130.25 L 198.832031 131.164062 C 198.882812 131.195312 198.941406 131.207031 198.996094 131.207031 C 199.113281 131.207031 199.222656 131.148438 199.285156 131.039062 C 199.375 130.878906 199.324219 130.671875 199.164062 130.578125 L 197.605469 129.664062 " fill-opacity="1" fill-rule="nonzero"/><path fill="#ffffff" d="M 198.410156 124.324219 C 198.410156 124.605469 198.632812 124.832031 198.910156 124.832031 L 200.707031 124.832031 C 200.980469 124.832031 201.207031 124.605469 201.207031 124.324219 C 201.207031 124.042969 200.980469 123.816406 200.707031 123.816406 L 198.910156 123.816406 C 198.632812 123.816406 198.410156 124.042969 198.410156 124.324219 " fill-opacity="1" fill-rule="nonzero"/><path fill="#ffffff" d="M 197.40625 119.039062 C 197.464844 119.039062 197.519531 119.023438 197.574219 118.992188 L 199.128906 118.078125 C 199.289062 117.988281 199.34375 117.78125 199.25 117.617188 C 199.160156 117.457031 198.957031 117.402344 198.796875 117.492188 L 197.242188 118.40625 C 197.082031 118.5 197.027344 118.707031 197.117188 118.867188 C 197.179688 118.976562 197.292969 119.039062 197.40625 119.039062 " fill-opacity="1" fill-rule="nonzero"/><path fill="#ffffff" d="M 193.171875 114.882812 C 193.222656 114.914062 193.28125 114.929688 193.339844 114.929688 C 193.453125 114.929688 193.566406 114.867188 193.625 114.761719 L 194.523438 113.179688 C 194.617188 113.019531 194.5625 112.8125 194.402344 112.71875 C 194.246094 112.625 194.039062 112.679688 193.949219 112.839844 L 193.050781 114.421875 C 192.957031 114.585938 193.011719 114.789062 193.171875 114.882812 " fill-opacity="1" fill-rule="nonzero"/><path fill="#ffffff" d="M 183.601562 127.445312 L 181.074219 127.445312 C 181.140625 126.738281 181.648438 125.875 182.261719 125.03125 C 182.988281 124.039062 183.4375 123.441406 183.4375 122.035156 C 183.4375 120.644531 183.007812 119.707031 181.515625 119.707031 C 179.890625 119.707031 179.566406 120.851562 179.566406 121.871094 L 179.566406 122.371094 L 180.835938 122.371094 L 180.835938 121.910156 C 180.835938 121.210938 181.011719 120.875 181.453125 120.875 C 181.957031 120.875 182.054688 121.230469 182.054688 122.121094 C 182.054688 123.101562 181.800781 123.425781 181.082031 124.449219 C 180.199219 125.722656 179.550781 126.808594 179.539062 128.484375 L 179.539062 128.648438 L 183.601562 128.648438 L 183.601562 127.445312 " fill-opacity="1" fill-rule="nonzero"/><path fill="#ffffff" d="M 185.136719 125.304688 C 185.566406 123.859375 185.949219 122.523438 186.328125 121.070312 L 186.339844 121.070312 C 186.324219 121.953125 186.289062 122.851562 186.289062 123.734375 L 186.289062 125.304688 Z M 187.550781 128.648438 L 187.550781 126.449219 L 188.203125 126.449219 L 188.203125 125.304688 L 187.550781 125.304688 L 187.550781 119.8125 L 185.699219 119.8125 L 183.835938 125.410156 L 183.835938 126.449219 L 186.289062 126.449219 L 186.289062 128.648438 L 187.550781 128.648438 " fill-opacity="1" fill-rule="nonzero"/><path fill="#ffffff" d="M 189.542969 129.058594 L 191.621094 119.570312 L 190.585938 119.570312 L 188.496094 129.058594 L 189.542969 129.058594 " fill-opacity="1" fill-rule="nonzero"/><path fill="#ffffff" d="M 195.777344 119.8125 L 191.863281 119.8125 L 191.863281 121.042969 L 194.378906 121.042969 C 193.453125 122.808594 192.503906 125.722656 192.1875 128.648438 L 193.59375 128.648438 C 193.953125 125.53125 194.765625 122.847656 195.777344 120.875 L 195.777344 119.8125 " fill-opacity="1" fill-rule="nonzero"/><g fill="#2c6b74" fill-opacity="1"><g transform="translate(121.741173, 195.822192)"><g><path d="M 6.203125 -19.59375 L 6.203125 -0.65625 C 6.203125 -0.21875 5.984375 0 5.546875 0 L 2.859375 0 C 2.421875 0 2.203125 -0.21875 2.203125 -0.65625 L 2.203125 -19.59375 C 2.203125 -20.03125 2.421875 -20.25 2.859375 -20.25 L 5.546875 -20.25 C 5.984375 -20.25 6.203125 -20.03125 6.203125 -19.59375 Z M 6.203125 -19.59375 "/></g></g></g><g fill="#2c6b74" fill-opacity="1"><g transform="translate(130.150077, 195.822192)"><g><path d="M 1.546875 -5.171875 L 1.546875 -5.796875 C 1.546875 -6.234375 1.765625 -6.453125 2.203125 -6.453125 L 4.875 -6.453125 C 5.320312 -6.453125 5.546875 -6.234375 5.546875 -5.796875 L 5.546875 -5.546875 C 5.546875 -4.742188 5.703125 -4.195312 6.015625 -3.90625 C 6.328125 -3.613281 6.90625 -3.46875 7.75 -3.46875 L 9.234375 -3.46875 C 10.046875 -3.46875 10.613281 -3.625 10.9375 -3.9375 C 11.269531 -4.25 11.4375 -4.835938 11.4375 -5.703125 L 11.4375 -6.078125 C 11.4375 -6.691406 11.1875 -7.160156 10.6875 -7.484375 C 10.195312 -7.804688 9.582031 -8 8.84375 -8.0625 C 8.113281 -8.125 7.320312 -8.242188 6.46875 -8.421875 C 5.625 -8.597656 4.832031 -8.828125 4.09375 -9.109375 C 3.363281 -9.398438 2.75 -9.957031 2.25 -10.78125 C 1.757812 -11.613281 1.515625 -12.679688 1.515625 -13.984375 L 1.515625 -15.09375 C 1.515625 -16.726562 1.972656 -17.992188 2.890625 -18.890625 C 3.816406 -19.796875 5.097656 -20.25 6.734375 -20.25 L 9.890625 -20.25 C 11.546875 -20.25 12.835938 -19.796875 13.765625 -18.890625 C 14.691406 -17.992188 15.15625 -16.726562 15.15625 -15.09375 L 15.15625 -14.484375 C 15.15625 -14.046875 14.929688 -13.828125 14.484375 -13.828125 L 11.8125 -13.828125 C 11.375 -13.828125 11.15625 -14.046875 11.15625 -14.484375 L 11.15625 -14.671875 C 11.15625 -15.492188 10.992188 -16.050781 10.671875 -16.34375 C 10.359375 -16.644531 9.785156 -16.796875 8.953125 -16.796875 L 7.71875 -16.796875 C 6.851562 -16.796875 6.269531 -16.628906 5.96875 -16.296875 C 5.664062 -15.972656 5.515625 -15.335938 5.515625 -14.390625 L 5.515625 -13.796875 C 5.515625 -12.804688 6.375 -12.238281 8.09375 -12.09375 C 9.875 -11.945312 11.460938 -11.59375 12.859375 -11.03125 C 13.585938 -10.707031 14.195312 -10.140625 14.6875 -9.328125 C 15.1875 -8.523438 15.4375 -7.492188 15.4375 -6.234375 L 15.4375 -5.171875 C 15.4375 -3.523438 14.972656 -2.25 14.046875 -1.34375 C 13.117188 -0.445312 11.835938 0 10.203125 0 L 6.765625 0 C 5.128906 0 3.847656 -0.445312 2.921875 -1.34375 C 2.003906 -2.25 1.546875 -3.523438 1.546875 -5.171875 Z M 1.546875 -5.171875 "/></g></g></g><g fill="#2c6b74" fill-opacity="1"><g transform="translate(147.125343, 195.822192)"><g><path d="M 13.015625 0 L 2.703125 0 C 2.265625 0 2.046875 -0.21875 2.046875 -0.65625 L 2.046875 -19.59375 C 2.046875 -20.03125 2.265625 -20.25 2.703125 -20.25 L 13.015625 -20.25 C 13.429688 -20.25 13.640625 -20.03125 13.640625 -19.59375 L 13.640625 -17.453125 C 13.640625 -17.015625 13.429688 -16.796875 13.015625 -16.796875 L 6.421875 -16.796875 C 6.171875 -16.796875 6.046875 -16.675781 6.046875 -16.4375 L 6.046875 -12.34375 C 6.046875 -12.113281 6.171875 -12 6.421875 -12 L 11.8125 -12 C 12.25 -12 12.46875 -11.78125 12.46875 -11.34375 L 12.46875 -9.203125 C 12.46875 -8.753906 12.25 -8.53125 11.8125 -8.53125 L 6.421875 -8.53125 C 6.171875 -8.53125 6.046875 -8.414062 6.046875 -8.1875 L 6.046875 -3.8125 C 6.046875 -3.582031 6.171875 -3.46875 6.421875 -3.46875 L 13.015625 -3.46875 C 13.429688 -3.46875 13.640625 -3.242188 13.640625 -2.796875 L 13.640625 -0.65625 C 13.640625 -0.21875 13.429688 0 13.015625 0 Z M 13.015625 0 "/></g></g></g><g fill="#2c6b74" fill-opacity="1"><g transform="translate(162.210967, 195.822192)"><g><path d="M 5.390625 0 L 2.703125 0 C 2.265625 0 2.046875 -0.21875 2.046875 -0.65625 L 2.046875 -19.59375 C 2.046875 -20.03125 2.265625 -20.25 2.703125 -20.25 L 10.203125 -20.25 C 11.835938 -20.25 13.117188 -19.796875 14.046875 -18.890625 C 14.972656 -17.992188 15.4375 -16.726562 15.4375 -15.09375 L 15.4375 -12.625 C 15.4375 -10.257812 14.5 -8.6875 12.625 -7.90625 L 12.625 -7.78125 L 16 -0.75 C 16.1875 -0.25 16.007812 0 15.46875 0 L 12.921875 0 C 12.535156 0 12.257812 -0.0390625 12.09375 -0.125 C 11.925781 -0.207031 11.789062 -0.382812 11.6875 -0.65625 L 8.53125 -7.46875 L 6.421875 -7.46875 C 6.171875 -7.46875 6.046875 -7.351562 6.046875 -7.125 L 6.046875 -0.65625 C 6.046875 -0.21875 5.828125 0 5.390625 0 Z M 6.390625 -10.671875 L 9.484375 -10.671875 C 10.148438 -10.671875 10.640625 -10.8125 10.953125 -11.09375 C 11.273438 -11.382812 11.4375 -11.84375 11.4375 -12.46875 L 11.4375 -14.9375 C 11.4375 -15.582031 11.273438 -16.050781 10.953125 -16.34375 C 10.640625 -16.644531 10.148438 -16.796875 9.484375 -16.796875 L 6.390625 -16.796875 C 6.160156 -16.796875 6.046875 -16.675781 6.046875 -16.4375 L 6.046875 -11.03125 C 6.046875 -10.789062 6.160156 -10.671875 6.390625 -10.671875 Z M 6.390625 -10.671875 "/></g></g></g><g fill="#2c6b74" fill-opacity="1"><g transform="translate(179.438181, 195.822192)"><g><path d="M 10.296875 0 L 6.171875 0 C 5.734375 0 5.472656 -0.21875 5.390625 -0.65625 L 0.5 -19.53125 C 0.351562 -20.007812 0.566406 -20.25 1.140625 -20.25 L 4.09375 -20.25 C 4.507812 -20.25 4.757812 -20.03125 4.84375 -19.59375 L 8.15625 -4.09375 L 8.28125 -4.09375 L 11.59375 -19.59375 C 11.675781 -20.03125 11.925781 -20.25 12.34375 -20.25 L 15.3125 -20.25 C 15.832031 -20.25 16.039062 -20.007812 15.9375 -19.53125 L 11.0625 -0.65625 C 10.957031 -0.21875 10.703125 0 10.296875 0 Z M 10.296875 0 "/></g></g></g><g fill="#2c6b74" fill-opacity="1"><g transform="translate(195.846556, 195.822192)"><g><path d="M 6.203125 -19.59375 L 6.203125 -0.65625 C 6.203125 -0.21875 5.984375 0 5.546875 0 L 2.859375 0 C 2.421875 0 2.203125 -0.21875 2.203125 -0.65625 L 2.203125 -19.59375 C 2.203125 -20.03125 2.421875 -20.25 2.859375 -20.25 L 5.546875 -20.25 C 5.984375 -20.25 6.203125 -20.03125 6.203125 -19.59375 Z M 6.203125 -19.59375 "/></g></g></g><g fill="#2c6b74" fill-opacity="1"><g transform="translate(204.255459, 195.822192)"><g><path d="M 10.359375 0 L 6.9375 0 C 5.269531 0 3.984375 -0.4375 3.078125 -1.3125 C 2.179688 -2.195312 1.734375 -3.472656 1.734375 -5.140625 L 1.734375 -15.125 C 1.734375 -16.78125 2.179688 -18.046875 3.078125 -18.921875 C 3.984375 -19.804688 5.269531 -20.25 6.9375 -20.25 L 10.359375 -20.25 C 12.003906 -20.25 13.28125 -19.800781 14.1875 -18.90625 C 15.101562 -18.019531 15.5625 -16.757812 15.5625 -15.125 L 15.5625 -13.640625 C 15.5625 -13.179688 15.332031 -12.953125 14.875 -12.953125 L 12.21875 -12.953125 C 11.78125 -12.953125 11.5625 -13.179688 11.5625 -13.640625 L 11.5625 -14.9375 C 11.5625 -15.601562 11.414062 -16.078125 11.125 -16.359375 C 10.84375 -16.648438 10.367188 -16.796875 9.703125 -16.796875 L 7.5625 -16.796875 C 6.90625 -16.796875 6.4375 -16.648438 6.15625 -16.359375 C 5.875 -16.078125 5.734375 -15.601562 5.734375 -14.9375 L 5.734375 -5.328125 C 5.734375 -4.648438 5.875 -4.171875 6.15625 -3.890625 C 6.4375 -3.609375 6.90625 -3.46875 7.5625 -3.46875 L 9.703125 -3.46875 C 10.367188 -3.46875 10.84375 -3.609375 11.125 -3.890625 C 11.414062 -4.171875 11.5625 -4.648438 11.5625 -5.328125 L 11.5625 -6.609375 C 11.5625 -7.078125 11.78125 -7.3125 12.21875 -7.3125 L 14.875 -7.3125 C 15.332031 -7.3125 15.5625 -7.078125 15.5625 -6.609375 L 15.5625 -5.140625 C 15.5625 -3.492188 15.101562 -2.222656 14.1875 -1.328125 C 13.28125 -0.441406 12.003906 0 10.359375 0 Z M 10.359375 0 "/></g></g></g><g fill="#2c6b74" fill-opacity="1"><g transform="translate(221.199228, 195.822192)"><g><path d="M 13.015625 0 L 2.703125 0 C 2.265625 0 2.046875 -0.21875 2.046875 -0.65625 L 2.046875 -19.59375 C 2.046875 -20.03125 2.265625 -20.25 2.703125 -20.25 L 13.015625 -20.25 C 13.429688 -20.25 13.640625 -20.03125 13.640625 -19.59375 L 13.640625 -17.453125 C 13.640625 -17.015625 13.429688 -16.796875 13.015625 -16.796875 L 6.421875 -16.796875 C 6.171875 -16.796875 6.046875 -16.675781 6.046875 -16.4375 L 6.046875 -12.34375 C 6.046875 -12.113281 6.171875 -12 6.421875 -12 L 11.8125 -12 C 12.25 -12 12.46875 -11.78125 12.46875 -11.34375 L 12.46875 -9.203125 C 12.46875 -8.753906 12.25 -8.53125 11.8125 -8.53125 L 6.421875 -8.53125 C 6.171875 -8.53125 6.046875 -8.414062 6.046875 -8.1875 L 6.046875 -3.8125 C 6.046875 -3.582031 6.171875 -3.46875 6.421875 -3.46875 L 13.015625 -3.46875 C 13.429688 -3.46875 13.640625 -3.242188 13.640625 -2.796875 L 13.640625 -0.65625 C 13.640625 -0.21875 13.429688 0 13.015625 0 Z M 13.015625 0 "/></g></g></g><g fill="#2c6b74" fill-opacity="1"><g transform="translate(236.284852, 195.822192)"><g><path d="M 1.546875 -5.171875 L 1.546875 -5.796875 C 1.546875 -6.234375 1.765625 -6.453125 2.203125 -6.453125 L 4.875 -6.453125 C 5.320312 -6.453125 5.546875 -6.234375 5.546875 -5.796875 L 5.546875 -5.546875 C 5.546875 -4.742188 5.703125 -4.195312 6.015625 -3.90625 C 6.328125 -3.613281 6.90625 -3.46875 7.75 -3.46875 L 9.234375 -3.46875 C 10.046875 -3.46875 10.613281 -3.625 10.9375 -3.9375 C 11.269531 -4.25 11.4375 -4.835938 11.4375 -5.703125 L 11.4375 -6.078125 C 11.4375 -6.691406 11.1875 -7.160156 10.6875 -7.484375 C 10.195312 -7.804688 9.582031 -8 8.84375 -8.0625 C 8.113281 -8.125 7.320312 -8.242188 6.46875 -8.421875 C 5.625 -8.597656 4.832031 -8.828125 4.09375 -9.109375 C 3.363281 -9.398438 2.75 -9.957031 2.25 -10.78125 C 1.757812 -11.613281 1.515625 -12.679688 1.515625 -13.984375 L 1.515625 -15.09375 C 1.515625 -16.726562 1.972656 -17.992188 2.890625 -18.890625 C 3.816406 -19.796875 5.097656 -20.25 6.734375 -20.25 L 9.890625 -20.25 C 11.546875 -20.25 12.835938 -19.796875 13.765625 -18.890625 C 14.691406 -17.992188 15.15625 -16.726562 15.15625 -15.09375 L 15.15625 -14.484375 C 15.15625 -14.046875 14.929688 -13.828125 14.484375 -13.828125 L 11.8125 -13.828125 C 11.375 -13.828125 11.15625 -14.046875 11.15625 -14.484375 L 11.15625 -14.671875 C 11.15625 -15.492188 10.992188 -16.050781 10.671875 -16.34375 C 10.359375 -16.644531 9.785156 -16.796875 8.953125 -16.796875 L 7.71875 -16.796875 C 6.851562 -16.796875 6.269531 -16.628906 5.96875 -16.296875 C 5.664062 -15.972656 5.515625 -15.335938 5.515625 -14.390625 L 5.515625 -13.796875 C 5.515625 -12.804688 6.375 -12.238281 8.09375 -12.09375 C 9.875 -11.945312 11.460938 -11.59375 12.859375 -11.03125 C 13.585938 -10.707031 14.195312 -10.140625 14.6875 -9.328125 C 15.1875 -8.523438 15.4375 -7.492188 15.4375 -6.234375 L 15.4375 -5.171875 C 15.4375 -3.523438 14.972656 -2.25 14.046875 -1.34375 C 13.117188 -0.445312 11.835938 0 10.203125 0 L 6.765625 0 C 5.128906 0 3.847656 -0.445312 2.921875 -1.34375 C 2.003906 -2.25 1.546875 -3.523438 1.546875 -5.171875 Z M 1.546875 -5.171875 "/></g></g></g><path fill="#ffffff" d="M 89.769531 146.855469 L 284.890625 146.855469 C 287.964844 146.855469 290.910156 148.078125 293.082031 150.253906 C 295.253906 152.429688 296.472656 155.378906 296.472656 158.453125 L 296.472656 159.171875 C 296.472656 162.246094 295.253906 165.195312 293.082031 167.371094 C 290.910156 169.546875 287.964844 170.765625 284.890625 170.765625 L 89.769531 170.765625 C 83.371094 170.765625 78.1875 165.574219 78.1875 159.171875 L 78.1875 158.453125 C 78.1875 152.046875 83.371094 146.855469 89.769531 146.855469 " fill-opacity="1" fill-rule="nonzero"/><g fill="#2c6b74" fill-opacity="1"><g transform="translate(85.023629, 163.764757)"><g><path d="M 8.953125 -3.40625 C 8.867188 -2.3125 8.460938 -1.445312 7.734375 -0.8125 C 7.003906 -0.175781 6.035156 0.140625 4.828125 0.140625 C 3.515625 0.140625 2.484375 -0.300781 1.734375 -1.1875 C 0.984375 -2.070312 0.609375 -3.285156 0.609375 -4.828125 L 0.609375 -5.453125 C 0.609375 -6.429688 0.78125 -7.296875 1.125 -8.046875 C 1.46875 -8.804688 1.960938 -9.382812 2.609375 -9.78125 C 3.253906 -10.175781 4.003906 -10.375 4.859375 -10.375 C 6.046875 -10.375 7 -10.054688 7.71875 -9.421875 C 8.4375 -8.796875 8.851562 -7.910156 8.96875 -6.765625 L 6.859375 -6.765625 C 6.804688 -7.429688 6.617188 -7.910156 6.296875 -8.203125 C 5.984375 -8.503906 5.503906 -8.65625 4.859375 -8.65625 C 4.160156 -8.65625 3.632812 -8.398438 3.28125 -7.890625 C 2.925781 -7.390625 2.75 -6.609375 2.75 -5.546875 L 2.75 -4.78125 C 2.75 -3.664062 2.914062 -2.851562 3.25 -2.34375 C 3.582031 -1.832031 4.109375 -1.578125 4.828125 -1.578125 C 5.484375 -1.578125 5.972656 -1.722656 6.296875 -2.015625 C 6.617188 -2.316406 6.800781 -2.78125 6.84375 -3.40625 Z M 8.953125 -3.40625 "/></g></g><g transform="translate(94.450851, 163.764757)"><g><path d="M 9.328125 -4.890625 C 9.328125 -3.878906 9.148438 -2.992188 8.796875 -2.234375 C 8.441406 -1.472656 7.929688 -0.882812 7.265625 -0.46875 C 6.597656 -0.0625 5.835938 0.140625 4.984375 0.140625 C 4.128906 0.140625 3.367188 -0.0625 2.703125 -0.46875 C 2.035156 -0.875 1.519531 -1.457031 1.15625 -2.21875 C 0.789062 -2.976562 0.609375 -3.847656 0.609375 -4.828125 L 0.609375 -5.34375 C 0.609375 -6.34375 0.785156 -7.226562 1.140625 -8 C 1.503906 -8.769531 2.019531 -9.359375 2.6875 -9.765625 C 3.351562 -10.171875 4.113281 -10.375 4.96875 -10.375 C 5.820312 -10.375 6.578125 -10.171875 7.234375 -9.765625 C 7.898438 -9.359375 8.414062 -8.769531 8.78125 -8 C 9.144531 -7.226562 9.328125 -6.34375 9.328125 -5.34375 Z M 7.1875 -5.359375 C 7.1875 -6.429688 6.992188 -7.242188 6.609375 -7.796875 C 6.222656 -8.359375 5.675781 -8.640625 4.96875 -8.640625 C 4.257812 -8.640625 3.710938 -8.363281 3.328125 -7.8125 C 2.941406 -7.257812 2.75 -6.453125 2.75 -5.390625 L 2.75 -4.890625 C 2.75 -3.835938 2.9375 -3.023438 3.3125 -2.453125 C 3.695312 -1.878906 4.253906 -1.59375 4.984375 -1.59375 C 5.691406 -1.59375 6.234375 -1.867188 6.609375 -2.421875 C 6.992188 -2.972656 7.1875 -3.785156 7.1875 -4.859375 Z M 7.1875 -5.359375 "/></g></g><g transform="translate(104.39868, 163.764757)"><g><path d="M 9.25 0 L 7.125 0 L 3.03125 -6.734375 L 3.03125 0 L 0.921875 0 L 0.921875 -10.234375 L 3.03125 -10.234375 L 7.140625 -3.484375 L 7.140625 -10.234375 L 9.25 -10.234375 Z M 9.25 0 "/></g></g><g transform="translate(114.571636, 163.764757)"><g><path d="M 8.625 -8.53125 L 5.484375 -8.53125 L 5.484375 0 L 3.375 0 L 3.375 -8.53125 L 0.28125 -8.53125 L 0.28125 -10.234375 L 8.625 -10.234375 Z M 8.625 -8.53125 "/></g></g><g transform="translate(123.485285, 163.764757)"><g><path d="M 4.703125 -3.75 L 3.03125 -3.75 L 3.03125 0 L 0.921875 0 L 0.921875 -10.234375 L 4.71875 -10.234375 C 5.925781 -10.234375 6.859375 -9.960938 7.515625 -9.421875 C 8.171875 -8.890625 8.5 -8.128906 8.5 -7.140625 C 8.5 -6.441406 8.347656 -5.859375 8.046875 -5.390625 C 7.742188 -4.929688 7.285156 -4.5625 6.671875 -4.28125 L 8.890625 -0.09375 L 8.890625 0 L 6.625 0 Z M 3.03125 -5.453125 L 4.734375 -5.453125 C 5.253906 -5.453125 5.660156 -5.585938 5.953125 -5.859375 C 6.242188 -6.128906 6.390625 -6.503906 6.390625 -6.984375 C 6.390625 -7.460938 6.253906 -7.835938 5.984375 -8.109375 C 5.710938 -8.390625 5.289062 -8.53125 4.71875 -8.53125 L 3.03125 -8.53125 Z M 3.03125 -5.453125 "/></g></g><g transform="translate(132.680343, 163.764757)"><g><path d="M 6.703125 -2.109375 L 3 -2.109375 L 2.296875 0 L 0.046875 0 L 3.859375 -10.234375 L 5.8125 -10.234375 L 9.65625 0 L 7.40625 0 Z M 3.5625 -3.8125 L 6.125 -3.8125 L 4.84375 -7.65625 Z M 3.5625 -3.8125 "/></g></g><g transform="translate(142.374904, 163.764757)"><g><path d="M 8.625 -8.53125 L 5.484375 -8.53125 L 5.484375 0 L 3.375 0 L 3.375 -8.53125 L 0.28125 -8.53125 L 0.28125 -10.234375 L 8.625 -10.234375 Z M 8.625 -8.53125 "/></g></g><g transform="translate(151.288552, 163.764757)"><g><path d="M 6.703125 -2.109375 L 3 -2.109375 L 2.296875 0 L 0.046875 0 L 3.859375 -10.234375 L 5.8125 -10.234375 L 9.65625 0 L 7.40625 0 Z M 3.5625 -3.8125 L 6.125 -3.8125 L 4.84375 -7.65625 Z M 3.5625 -3.8125 "/></g></g><g transform="translate(160.983113, 163.764757)"><g><path d="M 8.953125 -3.40625 C 8.867188 -2.3125 8.460938 -1.445312 7.734375 -0.8125 C 7.003906 -0.175781 6.035156 0.140625 4.828125 0.140625 C 3.515625 0.140625 2.484375 -0.300781 1.734375 -1.1875 C 0.984375 -2.070312 0.609375 -3.285156 0.609375 -4.828125 L 0.609375 -5.453125 C 0.609375 -6.429688 0.78125 -7.296875 1.125 -8.046875 C 1.46875 -8.804688 1.960938 -9.382812 2.609375 -9.78125 C 3.253906 -10.175781 4.003906 -10.375 4.859375 -10.375 C 6.046875 -10.375 7 -10.054688 7.71875 -9.421875 C 8.4375 -8.796875 8.851562 -7.910156 8.96875 -6.765625 L 6.859375 -6.765625 C 6.804688 -7.429688 6.617188 -7.910156 6.296875 -8.203125 C 5.984375 -8.503906 5.503906 -8.65625 4.859375 -8.65625 C 4.160156 -8.65625 3.632812 -8.398438 3.28125 -7.890625 C 2.925781 -7.390625 2.75 -6.609375 2.75 -5.546875 L 2.75 -4.78125 C 2.75 -3.664062 2.914062 -2.851562 3.25 -2.34375 C 3.582031 -1.832031 4.109375 -1.578125 4.828125 -1.578125 C 5.484375 -1.578125 5.972656 -1.722656 6.296875 -2.015625 C 6.617188 -2.316406 6.800781 -2.78125 6.84375 -3.40625 Z M 5.59375 -0.046875 L 5.515625 0.359375 C 6.222656 0.484375 6.578125 0.890625 6.578125 1.578125 C 6.578125 2.085938 6.363281 2.492188 5.9375 2.796875 C 5.507812 3.097656 4.90625 3.25 4.125 3.25 L 4.078125 2.078125 C 4.597656 2.078125 4.859375 1.882812 4.859375 1.5 C 4.859375 1.300781 4.78125 1.164062 4.625 1.09375 C 4.46875 1.019531 4.210938 0.972656 3.859375 0.953125 L 4.078125 -0.046875 Z M 5.59375 -0.046875 "/></g></g><g transform="translate(170.410334, 163.764757)"><g><path d="M 9.328125 -4.890625 C 9.328125 -3.878906 9.148438 -2.992188 8.796875 -2.234375 C 8.441406 -1.472656 7.929688 -0.882812 7.265625 -0.46875 C 6.597656 -0.0625 5.835938 0.140625 4.984375 0.140625 C 4.128906 0.140625 3.367188 -0.0625 2.703125 -0.46875 C 2.035156 -0.875 1.519531 -1.457031 1.15625 -2.21875 C 0.789062 -2.976562 0.609375 -3.847656 0.609375 -4.828125 L 0.609375 -5.34375 C 0.609375 -6.34375 0.785156 -7.226562 1.140625 -8 C 1.503906 -8.769531 2.019531 -9.359375 2.6875 -9.765625 C 3.351562 -10.171875 4.113281 -10.375 4.96875 -10.375 C 5.820312 -10.375 6.578125 -10.171875 7.234375 -9.765625 C 7.898438 -9.359375 8.414062 -8.769531 8.78125 -8 C 9.144531 -7.226562 9.328125 -6.34375 9.328125 -5.34375 Z M 7.1875 -5.359375 C 7.1875 -6.429688 6.992188 -7.242188 6.609375 -7.796875 C 6.222656 -8.359375 5.675781 -8.640625 4.96875 -8.640625 C 4.257812 -8.640625 3.710938 -8.363281 3.328125 -7.8125 C 2.941406 -7.257812 2.75 -6.453125 2.75 -5.390625 L 2.75 -4.890625 C 2.75 -3.835938 2.9375 -3.023438 3.3125 -2.453125 C 3.695312 -1.878906 4.253906 -1.59375 4.984375 -1.59375 C 5.691406 -1.59375 6.234375 -1.867188 6.609375 -2.421875 C 6.992188 -2.972656 7.1875 -3.785156 7.1875 -4.859375 Z M 7.609375 -12.890625 C 7.609375 -12.359375 7.453125 -11.910156 7.140625 -11.546875 C 6.828125 -11.191406 6.445312 -11.015625 6 -11.015625 C 5.820312 -11.015625 5.664062 -11.035156 5.53125 -11.078125 C 5.394531 -11.117188 5.203125 -11.203125 4.953125 -11.328125 C 4.710938 -11.460938 4.535156 -11.546875 4.421875 -11.578125 C 4.316406 -11.609375 4.203125 -11.625 4.078125 -11.625 C 3.910156 -11.625 3.769531 -11.566406 3.65625 -11.453125 C 3.539062 -11.335938 3.484375 -11.171875 3.484375 -10.953125 L 2.3125 -11.015625 C 2.3125 -11.535156 2.460938 -11.976562 2.765625 -12.34375 C 3.078125 -12.71875 3.453125 -12.90625 3.890625 -12.90625 C 4.035156 -12.90625 4.171875 -12.882812 4.296875 -12.84375 C 4.421875 -12.8125 4.625 -12.726562 4.90625 -12.59375 C 5.1875 -12.457031 5.378906 -12.375 5.484375 -12.34375 C 5.597656 -12.3125 5.710938 -12.296875 5.828125 -12.296875 C 5.992188 -12.296875 6.132812 -12.351562 6.25 -12.46875 C 6.363281 -12.582031 6.421875 -12.75 6.421875 -12.96875 Z M 7.609375 -12.890625 "/></g></g><g transform="translate(180.358163, 163.764757)"><g><path d="M 7.078125 -4.4375 L 3.03125 -4.4375 L 3.03125 -1.6875 L 7.78125 -1.6875 L 7.78125 0 L 0.921875 0 L 0.921875 -10.234375 L 7.765625 -10.234375 L 7.765625 -8.53125 L 3.03125 -8.53125 L 3.03125 -6.09375 L 7.078125 -6.09375 Z M 7.078125 -4.4375 "/></g></g><g transform="translate(188.462759, 163.764757)"><g><path d="M 6.21875 -2.6875 C 6.21875 -3.082031 6.078125 -3.382812 5.796875 -3.59375 C 5.515625 -3.8125 5.007812 -4.039062 4.28125 -4.28125 C 3.550781 -4.519531 2.972656 -4.753906 2.546875 -4.984375 C 1.378906 -5.609375 0.796875 -6.453125 0.796875 -7.515625 C 0.796875 -8.066406 0.953125 -8.5625 1.265625 -9 C 1.578125 -9.4375 2.023438 -9.773438 2.609375 -10.015625 C 3.191406 -10.253906 3.847656 -10.375 4.578125 -10.375 C 5.304688 -10.375 5.957031 -10.242188 6.53125 -9.984375 C 7.101562 -9.722656 7.546875 -9.347656 7.859375 -8.859375 C 8.179688 -8.378906 8.34375 -7.832031 8.34375 -7.21875 L 6.234375 -7.21875 C 6.234375 -7.6875 6.082031 -8.050781 5.78125 -8.3125 C 5.488281 -8.570312 5.078125 -8.703125 4.546875 -8.703125 C 4.023438 -8.703125 3.617188 -8.59375 3.328125 -8.375 C 3.046875 -8.15625 2.90625 -7.867188 2.90625 -7.515625 C 2.90625 -7.179688 3.070312 -6.898438 3.40625 -6.671875 C 3.75 -6.453125 4.242188 -6.242188 4.890625 -6.046875 C 6.097656 -5.679688 6.972656 -5.226562 7.515625 -4.6875 C 8.066406 -4.15625 8.34375 -3.492188 8.34375 -2.703125 C 8.34375 -1.816406 8.003906 -1.117188 7.328125 -0.609375 C 6.660156 -0.109375 5.757812 0.140625 4.625 0.140625 C 3.84375 0.140625 3.125 0 2.46875 -0.28125 C 1.820312 -0.570312 1.328125 -0.96875 0.984375 -1.46875 C 0.648438 -1.976562 0.484375 -2.5625 0.484375 -3.21875 L 2.609375 -3.21875 C 2.609375 -2.09375 3.28125 -1.53125 4.625 -1.53125 C 5.125 -1.53125 5.515625 -1.628906 5.796875 -1.828125 C 6.078125 -2.035156 6.21875 -2.320312 6.21875 -2.6875 Z M 6.21875 -2.6875 "/></g></g><g transform="translate(197.320126, 163.764757)"><g/></g><g transform="translate(200.908098, 163.764757)"><g><path d="M 0.921875 0 L 0.921875 -10.234375 L 4.0625 -10.234375 C 4.96875 -10.234375 5.773438 -10.03125 6.484375 -9.625 C 7.191406 -9.226562 7.742188 -8.65625 8.140625 -7.90625 C 8.546875 -7.15625 8.75 -6.304688 8.75 -5.359375 L 8.75 -4.875 C 8.75 -3.925781 8.550781 -3.082031 8.15625 -2.34375 C 7.757812 -1.601562 7.207031 -1.023438 6.5 -0.609375 C 5.789062 -0.203125 4.988281 0 4.09375 0 Z M 3.03125 -8.53125 L 3.03125 -1.6875 L 4.046875 -1.6875 C 4.867188 -1.6875 5.5 -1.957031 5.9375 -2.5 C 6.375 -3.039062 6.597656 -3.8125 6.609375 -4.8125 L 6.609375 -5.359375 C 6.609375 -6.398438 6.390625 -7.1875 5.953125 -7.71875 C 5.523438 -8.257812 4.894531 -8.53125 4.0625 -8.53125 Z M 3.03125 -8.53125 "/></g></g><g transform="translate(210.272002, 163.764757)"><g><path d="M 7.078125 -4.4375 L 3.03125 -4.4375 L 3.03125 -1.6875 L 7.78125 -1.6875 L 7.78125 0 L 0.921875 0 L 0.921875 -10.234375 L 7.765625 -10.234375 L 7.765625 -8.53125 L 3.03125 -8.53125 L 3.03125 -6.09375 L 7.078125 -6.09375 Z M 7.078125 -4.4375 "/></g></g><g transform="translate(218.376598, 163.764757)"><g/></g><g transform="translate(221.964571, 163.764757)"><g><path d="M 6.21875 -2.6875 C 6.21875 -3.082031 6.078125 -3.382812 5.796875 -3.59375 C 5.515625 -3.8125 5.007812 -4.039062 4.28125 -4.28125 C 3.550781 -4.519531 2.972656 -4.753906 2.546875 -4.984375 C 1.378906 -5.609375 0.796875 -6.453125 0.796875 -7.515625 C 0.796875 -8.066406 0.953125 -8.5625 1.265625 -9 C 1.578125 -9.4375 2.023438 -9.773438 2.609375 -10.015625 C 3.191406 -10.253906 3.847656 -10.375 4.578125 -10.375 C 5.304688 -10.375 5.957031 -10.242188 6.53125 -9.984375 C 7.101562 -9.722656 7.546875 -9.347656 7.859375 -8.859375 C 8.179688 -8.378906 8.34375 -7.832031 8.34375 -7.21875 L 6.234375 -7.21875 C 6.234375 -7.6875 6.082031 -8.050781 5.78125 -8.3125 C 5.488281 -8.570312 5.078125 -8.703125 4.546875 -8.703125 C 4.023438 -8.703125 3.617188 -8.59375 3.328125 -8.375 C 3.046875 -8.15625 2.90625 -7.867188 2.90625 -7.515625 C 2.90625 -7.179688 3.070312 -6.898438 3.40625 -6.671875 C 3.75 -6.453125 4.242188 -6.242188 4.890625 -6.046875 C 6.097656 -5.679688 6.972656 -5.226562 7.515625 -4.6875 C 8.066406 -4.15625 8.34375 -3.492188 8.34375 -2.703125 C 8.34375 -1.816406 8.003906 -1.117188 7.328125 -0.609375 C 6.660156 -0.109375 5.757812 0.140625 4.625 0.140625 C 3.84375 0.140625 3.125 0 2.46875 -0.28125 C 1.820312 -0.570312 1.328125 -0.96875 0.984375 -1.46875 C 0.648438 -1.976562 0.484375 -2.5625 0.484375 -3.21875 L 2.609375 -3.21875 C 2.609375 -2.09375 3.28125 -1.53125 4.625 -1.53125 C 5.125 -1.53125 5.515625 -1.628906 5.796875 -1.828125 C 6.078125 -2.035156 6.21875 -2.320312 6.21875 -2.6875 Z M 6.21875 -2.6875 "/></g></g><g transform="translate(230.821937, 163.764757)"><g><path d="M 7.078125 -4.4375 L 3.03125 -4.4375 L 3.03125 -1.6875 L 7.78125 -1.6875 L 7.78125 0 L 0.921875 0 L 0.921875 -10.234375 L 7.765625 -10.234375 L 7.765625 -8.53125 L 3.03125 -8.53125 L 3.03125 -6.09375 L 7.078125 -6.09375 Z M 7.078125 -4.4375 "/></g></g><g transform="translate(238.926534, 163.764757)"><g><path d="M 4.703125 -3.75 L 3.03125 -3.75 L 3.03125 0 L 0.921875 0 L 0.921875 -10.234375 L 4.71875 -10.234375 C 5.925781 -10.234375 6.859375 -9.960938 7.515625 -9.421875 C 8.171875 -8.890625 8.5 -8.128906 8.5 -7.140625 C 8.5 -6.441406 8.347656 -5.859375 8.046875 -5.390625 C 7.742188 -4.929688 7.285156 -4.5625 6.671875 -4.28125 L 8.890625 -0.09375 L 8.890625 0 L 6.625 0 Z M 3.03125 -5.453125 L 4.734375 -5.453125 C 5.253906 -5.453125 5.660156 -5.585938 5.953125 -5.859375 C 6.242188 -6.128906 6.390625 -6.503906 6.390625 -6.984375 C 6.390625 -7.460938 6.253906 -7.835938 5.984375 -8.109375 C 5.710938 -8.390625 5.289062 -8.53125 4.71875 -8.53125 L 3.03125 -8.53125 Z M 3.03125 -5.453125 "/></g></g><g transform="translate(248.121592, 163.764757)"><g><path d="M 4.703125 -2.546875 L 7.015625 -10.234375 L 9.375 -10.234375 L 5.796875 0 L 3.609375 0 L 0.046875 -10.234375 L 2.390625 -10.234375 Z M 4.703125 -2.546875 "/></g></g><g transform="translate(257.541778, 163.764757)"><g><path d="M 3.15625 0 L 1.046875 0 L 1.046875 -10.234375 L 3.15625 -10.234375 Z M 3.15625 0 "/></g></g><g transform="translate(261.741816, 163.764757)"><g><path d="M 8.953125 -3.40625 C 8.867188 -2.3125 8.460938 -1.445312 7.734375 -0.8125 C 7.003906 -0.175781 6.035156 0.140625 4.828125 0.140625 C 3.515625 0.140625 2.484375 -0.300781 1.734375 -1.1875 C 0.984375 -2.070312 0.609375 -3.285156 0.609375 -4.828125 L 0.609375 -5.453125 C 0.609375 -6.429688 0.78125 -7.296875 1.125 -8.046875 C 1.46875 -8.804688 1.960938 -9.382812 2.609375 -9.78125 C 3.253906 -10.175781 4.003906 -10.375 4.859375 -10.375 C 6.046875 -10.375 7 -10.054688 7.71875 -9.421875 C 8.4375 -8.796875 8.851562 -7.910156 8.96875 -6.765625 L 6.859375 -6.765625 C 6.804688 -7.429688 6.617188 -7.910156 6.296875 -8.203125 C 5.984375 -8.503906 5.503906 -8.65625 4.859375 -8.65625 C 4.160156 -8.65625 3.632812 -8.398438 3.28125 -7.890625 C 2.925781 -7.390625 2.75 -6.609375 2.75 -5.546875 L 2.75 -4.78125 C 2.75 -3.664062 2.914062 -2.851562 3.25 -2.34375 C 3.582031 -1.832031 4.109375 -1.578125 4.828125 -1.578125 C 5.484375 -1.578125 5.972656 -1.722656 6.296875 -2.015625 C 6.617188 -2.316406 6.800781 -2.78125 6.84375 -3.40625 Z M 5.59375 -0.046875 L 5.515625 0.359375 C 6.222656 0.484375 6.578125 0.890625 6.578125 1.578125 C 6.578125 2.085938 6.363281 2.492188 5.9375 2.796875 C 5.507812 3.097656 4.90625 3.25 4.125 3.25 L 4.078125 2.078125 C 4.597656 2.078125 4.859375 1.882812 4.859375 1.5 C 4.859375 1.300781 4.78125 1.164062 4.625 1.09375 C 4.46875 1.019531 4.210938 0.972656 3.859375 0.953125 L 4.078125 -0.046875 Z M 5.59375 -0.046875 "/></g></g><g transform="translate(271.169037, 163.764757)"><g><path d="M 9.328125 -4.890625 C 9.328125 -3.878906 9.148438 -2.992188 8.796875 -2.234375 C 8.441406 -1.472656 7.929688 -0.882812 7.265625 -0.46875 C 6.597656 -0.0625 5.835938 0.140625 4.984375 0.140625 C 4.128906 0.140625 3.367188 -0.0625 2.703125 -0.46875 C 2.035156 -0.875 1.519531 -1.457031 1.15625 -2.21875 C 0.789062 -2.976562 0.609375 -3.847656 0.609375 -4.828125 L 0.609375 -5.34375 C 0.609375 -6.34375 0.785156 -7.226562 1.140625 -8 C 1.503906 -8.769531 2.019531 -9.359375 2.6875 -9.765625 C 3.351562 -10.171875 4.113281 -10.375 4.96875 -10.375 C 5.820312 -10.375 6.578125 -10.171875 7.234375 -9.765625 C 7.898438 -9.359375 8.414062 -8.769531 8.78125 -8 C 9.144531 -7.226562 9.328125 -6.34375 9.328125 -5.34375 Z M 7.1875 -5.359375 C 7.1875 -6.429688 6.992188 -7.242188 6.609375 -7.796875 C 6.222656 -8.359375 5.675781 -8.640625 4.96875 -8.640625 C 4.257812 -8.640625 3.710938 -8.363281 3.328125 -7.8125 C 2.941406 -7.257812 2.75 -6.453125 2.75 -5.390625 L 2.75 -4.890625 C 2.75 -3.835938 2.9375 -3.023438 3.3125 -2.453125 C 3.695312 -1.878906 4.253906 -1.59375 4.984375 -1.59375 C 5.691406 -1.59375 6.234375 -1.867188 6.609375 -2.421875 C 6.992188 -2.972656 7.1875 -3.785156 7.1875 -4.859375 Z M 7.1875 -5.359375 "/></g></g><g transform="translate(281.116866, 163.764757)"><g><path d="M 6.21875 -2.6875 C 6.21875 -3.082031 6.078125 -3.382812 5.796875 -3.59375 C 5.515625 -3.8125 5.007812 -4.039062 4.28125 -4.28125 C 3.550781 -4.519531 2.972656 -4.753906 2.546875 -4.984375 C 1.378906 -5.609375 0.796875 -6.453125 0.796875 -7.515625 C 0.796875 -8.066406 0.953125 -8.5625 1.265625 -9 C 1.578125 -9.4375 2.023438 -9.773438 2.609375 -10.015625 C 3.191406 -10.253906 3.847656 -10.375 4.578125 -10.375 C 5.304688 -10.375 5.957031 -10.242188 6.53125 -9.984375 C 7.101562 -9.722656 7.546875 -9.347656 7.859375 -8.859375 C 8.179688 -8.378906 8.34375 -7.832031 8.34375 -7.21875 L 6.234375 -7.21875 C 6.234375 -7.6875 6.082031 -8.050781 5.78125 -8.3125 C 5.488281 -8.570312 5.078125 -8.703125 4.546875 -8.703125 C 4.023438 -8.703125 3.617188 -8.59375 3.328125 -8.375 C 3.046875 -8.15625 2.90625 -7.867188 2.90625 -7.515625 C 2.90625 -7.179688 3.070312 -6.898438 3.40625 -6.671875 C 3.75 -6.453125 4.242188 -6.242188 4.890625 -6.046875 C 6.097656 -5.679688 6.972656 -5.226562 7.515625 -4.6875 C 8.066406 -4.15625 8.34375 -3.492188 8.34375 -2.703125 C 8.34375 -1.816406 8.003906 -1.117188 7.328125 -0.609375 C 6.660156 -0.109375 5.757812 0.140625 4.625 0.140625 C 3.84375 0.140625 3.125 0 2.46875 -0.28125 C 1.820312 -0.570312 1.328125 -0.96875 0.984375 -1.46875 C 0.648438 -1.976562 0.484375 -2.5625 0.484375 -3.21875 L 2.609375 -3.21875 C 2.609375 -2.09375 3.28125 -1.53125 4.625 -1.53125 C 5.125 -1.53125 5.515625 -1.628906 5.796875 -1.828125 C 6.078125 -2.035156 6.21875 -2.320312 6.21875 -2.6875 Z M 6.21875 -2.6875 "/></g></g></g></svg>